<svg width="64" height="64" viewBox="0 0 64 64" fill="none" xmlns="http://www.w3.org/2000/svg">
<path d="M10.6666 10.6666H18.6666L23.9999 5.33331H39.9999L45.3333 10.6666H53.3333C54.7477 10.6666 56.1043 11.2285 57.1045 12.2287C58.1047 13.2289 58.6666 14.5855 58.6666 16V48C58.6666 49.4145 58.1047 50.771 57.1045 51.7712C56.1043 52.7714 54.7477 53.3333 53.3333 53.3333H10.6666C9.2521 53.3333 7.89554 52.7714 6.89535 51.7712C5.89515 50.771 5.33325 49.4145 5.33325 48V16C5.33325 14.5855 5.89515 13.2289 6.89535 12.2287C7.89554 11.2285 9.2521 10.6666 10.6666 10.6666ZM31.9999 18.6666C28.4637 18.6666 25.0723 20.0714 22.5718 22.5719C20.0713 25.0724 18.6666 28.4638 18.6666 32C18.6666 35.5362 20.0713 38.9276 22.5718 41.4281C25.0723 43.9286 28.4637 45.3333 31.9999 45.3333C35.5361 45.3333 38.9275 43.9286 41.428 41.4281C43.9285 38.9276 45.3333 35.5362 45.3333 32C45.3333 28.4638 43.9285 25.0724 41.428 22.5719C38.9275 20.0714 35.5361 18.6666 31.9999 18.6666ZM31.9999 24C34.1217 24 36.1565 24.8428 37.6568 26.3431C39.1571 27.8434 39.9999 29.8782 39.9999 32C39.9999 34.1217 39.1571 36.1565 37.6568 37.6568C36.1565 39.1571 34.1217 40 31.9999 40C29.8782 40 27.8434 39.1571 26.3431 37.6568C24.8428 36.1565 23.9999 34.1217 23.9999 32C23.9999 29.8782 24.8428 27.8434 26.3431 26.3431C27.8434 24.8428 29.8782 24 31.9999 24Z" fill="white"/>
</svg>
