<svg width="64" height="64" viewBox="0 0 64 64" fill="none" xmlns="http://www.w3.org/2000/svg">
<path d="M53.3332 16H45.3332V10.6666C45.3332 9.25216 44.7713 7.8956 43.7712 6.89541C42.771 5.89522 41.4144 5.33331 39.9999 5.33331H23.9999C22.5854 5.33331 21.2289 5.89522 20.2287 6.89541C19.2285 7.8956 18.6666 9.25216 18.6666 10.6666V16H10.6666C9.2521 16 7.89554 16.5619 6.89535 17.5621C5.89515 18.5623 5.33325 19.9188 5.33325 21.3333V48C5.33325 49.4145 5.89515 50.771 6.89535 51.7712C7.89554 52.7714 9.2521 53.3333 10.6666 53.3333H53.3332C54.7477 53.3333 56.1043 52.7714 57.1045 51.7712C58.1047 50.771 58.6666 49.4145 58.6666 48V21.3333C58.6666 19.9188 58.1047 18.5623 57.1045 17.5621C56.1043 16.5619 54.7477 16 53.3332 16ZM23.9999 10.6666H39.9999V16H23.9999V10.6666ZM42.6666 37.3333H34.6666V45.3333H29.3333V37.3333H21.3333V32H29.3333V24H34.6666V32H42.6666V37.3333Z" fill="white"/>
</svg>
