<svg width="64" height="64" viewBox="0 0 64 64" fill="none" xmlns="http://www.w3.org/2000/svg">
<path d="M26.892 4.21601C27.1567 4.34721 27.389 4.53543 27.5723 4.76712C27.7556 4.99881 27.8852 5.26823 27.952 5.55601C28.024 5.87201 30 14.328 30 20C30 23.8 28.232 27.188 25.48 29.384C24.48 30.184 24 31.056 24 31.784V33.728C24 33.8213 24.0053 33.9093 24.016 33.992C24.152 34.984 24.644 38.668 25.104 42.488C25.556 46.236 26 50.324 26 52C26 54.1217 25.1571 56.1566 23.6569 57.6569C22.1566 59.1572 20.1217 60 18 60C15.8783 60 13.8434 59.1572 12.3431 57.6569C10.8429 56.1566 10 54.1217 10 52C10 50.32 10.444 46.24 10.896 42.488C11.356 38.668 11.848 34.984 11.984 33.992L12 33.728V31.784C12 31.056 11.52 30.184 10.52 29.384C9.10993 28.26 7.97131 26.8326 7.18878 25.208C6.40625 23.5834 5.99992 21.8033 6 20C6 14.348 7.96 5.93601 8.048 5.56001C8.15199 5.11537 8.40356 4.71908 8.76168 4.43577C9.11981 4.15247 9.56336 3.99886 10.02 4.00001C11.14 4.00001 12.048 4.90801 12.048 6.02801V18.02C12.0322 18.2901 12.072 18.5606 12.1648 18.8148C12.2577 19.0689 12.4016 19.3013 12.5878 19.4977C12.774 19.6941 12.9984 19.8502 13.2472 19.9564C13.4961 20.0626 13.7641 20.1167 14.0347 20.1154C14.3052 20.114 14.5727 20.0572 14.8204 19.9484C15.0682 19.8397 15.291 19.6813 15.4752 19.4831C15.6594 19.2849 15.801 19.051 15.8912 18.7959C15.9815 18.5408 16.0185 18.27 16 18V6.00001C16 5.46957 16.2107 4.96087 16.5858 4.58579C16.9609 4.21072 17.4696 4.00001 18 4.00001C18.5304 4.00001 19.0391 4.21072 19.4142 4.58579C19.7893 4.96087 20 5.46957 20 6.00001V18.104C20.0111 18.6291 20.2304 19.1283 20.6096 19.4918C20.9888 19.8552 21.4969 20.0531 22.022 20.042C22.5471 20.0309 23.0463 19.8116 23.4098 19.4324C23.7732 19.0532 23.9711 18.5451 23.96 18.02V6.02001C23.96 4.90401 24.864 4.00001 25.984 4.00001C26.072 4.00001 26.464 4.00001 26.892 4.21601ZM36 22C36 17.2261 37.8964 12.6477 41.2721 9.27208C44.6477 5.89643 49.2261 4.00001 54 4.00001C54.5304 4.00001 55.0391 4.21072 55.4142 4.58579C55.7893 4.96087 56 5.46957 56 6.00001V29.892L56.076 30.6C56.3942 33.5854 56.6995 36.572 56.992 39.56C57.484 44.584 58 50.216 58 52C58 54.1217 57.1571 56.1566 55.6569 57.6569C54.1566 59.1572 52.1217 60 50 60C47.8783 60 45.8434 59.1572 44.3431 57.6569C42.8429 56.1566 42 54.1217 42 52C42 50.216 42.516 44.584 43.008 39.56C43.26 37.012 43.512 34.572 43.7 32.764L43.78 32H40C38.9391 32 37.9217 31.5786 37.1716 30.8284C36.4214 30.0783 36 29.0609 36 28V22Z" fill="white"/>
</svg>
