<svg width="64" height="64" viewBox="0 0 64 64" fill="none" xmlns="http://www.w3.org/2000/svg">
<path d="M31.9999 10.6667C29.5246 10.6667 27.1506 11.65 25.4003 13.4004C23.6499 15.1507 22.6666 17.5247 22.6666 20H27.9999C27.9999 18.9392 28.4213 17.9217 29.1715 17.1716C29.9216 16.4214 30.9391 16 31.9999 16C33.0608 16 34.0782 16.4214 34.8283 17.1716C35.5785 17.9217 35.9999 18.9392 35.9999 20C35.9999 21.0609 35.5785 22.0783 34.8283 22.8284C34.0782 23.5786 33.0608 24 31.9999 24C30.5333 24 29.3333 25.2 29.3333 26.6667V31.3334L6.39992 48.5334C5.95217 48.8692 5.62143 49.3373 5.45455 49.8716C5.28767 50.4058 5.29311 50.979 5.4701 51.51C5.64709 52.0409 5.98665 52.5028 6.44069 52.83C6.89473 53.1573 7.44023 53.3334 7.99992 53.3334H55.9999C56.5596 53.3334 57.1051 53.1573 57.5591 52.83C58.0132 52.5028 58.3527 52.0409 58.5297 51.51C58.7067 50.979 58.7122 50.4058 58.5453 49.8716C58.3784 49.3373 58.0477 48.8692 57.5999 48.5334L34.6666 31.3334V28.9334C36.591 28.3596 38.279 27.1805 39.48 25.5712C40.681 23.9619 41.3309 22.0081 41.3332 20C41.3332 17.5247 40.3499 15.1507 38.5996 13.4004C36.8492 11.65 34.4753 10.6667 31.9999 10.6667ZM31.9999 36L47.9999 48H15.9999L31.9999 36Z" fill="white"/>
</svg>
