<svg width="64" height="64" viewBox="0 0 64 64" fill="none" xmlns="http://www.w3.org/2000/svg">
<path d="M17.0666 12.8C14.7028 12.8 12.7999 14.7029 12.7999 17.0667C12.7999 19.4304 14.7028 21.3333 17.0666 21.3333H22.6004L19.8484 29.8667H10.6666C8.30284 29.8667 6.3999 31.7696 6.3999 34.1333C6.3999 36.4971 8.30284 38.4 10.6666 38.4H17.1092L12.9748 51.2427C12.839 51.6436 12.784 52.0675 12.8131 52.4898C12.8422 52.9122 12.9549 53.3245 13.1445 53.703C13.3341 54.0815 13.5969 54.4186 13.9177 54.6948C14.2386 54.971 14.611 55.1808 15.0135 55.3121C15.4159 55.4433 15.8405 55.4934 16.2624 55.4594C16.6844 55.4254 17.0954 55.308 17.4717 55.1141C17.848 54.9201 18.1821 54.6534 18.4545 54.3294C18.727 54.0055 18.9325 53.6306 19.0591 53.2267L19.0676 53.2096L23.8335 38.4H40.1663L44.9322 53.2053C45.1924 54.0133 45.763 54.6848 46.5183 55.072C47.2737 55.4593 48.152 55.5307 48.9599 55.2704C49.7679 55.0101 50.4393 54.4396 50.8266 53.6842C51.2139 52.9289 51.2852 52.0506 51.025 51.2427L46.8906 38.4H53.3332C55.697 38.4 57.5999 36.4971 57.5999 34.1333C57.5999 31.7696 55.697 29.8667 53.3332 29.8667H44.1514L41.3994 21.3333H46.9332C49.297 21.3333 51.1999 19.4304 51.1999 17.0667C51.1999 14.7029 49.297 12.8 46.9332 12.8H17.0666ZM29.3247 21.3333H34.6751L37.4271 29.8667H26.577L29.3247 21.3333Z" fill="white"/>
</svg>
