<svg width="64" height="64" viewBox="0 0 64 64" fill="none" xmlns="http://www.w3.org/2000/svg">
<path d="M18.9894 34.5333C19.3094 36.2293 19.9734 37.8453 20.9361 39.28L13.7361 46.48L10.8828 49.3067C9.17363 47.249 7.78057 44.9482 6.74943 42.48C4.32276 36.6373 4.00226 30.1329 5.84277 24.08C6.87564 20.623 8.59931 17.4115 10.9094 14.64L20.9361 24.6667C20.7069 24.9888 20.5019 25.3275 20.3228 25.68C18.8712 28.3892 18.4002 31.5167 18.9894 34.5333ZM49.2294 53.0933C45.0603 56.536 39.9614 58.6607 34.5813 59.1973C29.2012 59.7339 23.783 58.6581 19.0161 56.1067C17.4247 55.2564 15.9236 54.2468 14.5361 53.0933L24.5894 43.04C26.7608 44.4625 29.3002 45.2203 31.8961 45.2203C34.492 45.2203 37.0314 44.4625 39.2028 43.04L46.5628 50.2133L49.2294 53.0933ZM59.3361 31.9733C59.3199 38.2891 57.1359 44.4079 53.1494 49.3067L43.0961 39.2533C44.2774 37.4628 45.0092 35.4137 45.2294 33.28C45.5288 30.2407 44.7757 27.1907 43.0961 24.64L53.1494 14.5867C57.161 19.4919 59.3475 25.6366 59.3361 31.9733ZM49.2294 10.88L39.3094 20.88C38.2498 20.1938 37.1014 19.6555 35.8961 19.28C32.958 18.3895 29.8026 18.5402 26.9628 19.7067C26.173 20.0204 25.4215 20.423 24.7228 20.9067L17.4961 13.7067L14.5628 10.88C15.2398 10.3027 15.9523 9.76832 16.6961 9.27999C21.5672 6.01871 27.3592 4.41324 33.2142 4.70142C39.0691 4.98961 44.6755 7.15612 49.2028 10.88H49.2294ZM41.2294 32.9067C41.1006 34.1117 40.7383 35.2801 40.1628 36.3467C39.7493 37.1561 39.2092 37.8943 38.5628 38.5333C37.9228 39.1653 37.1948 39.704 36.4028 40.1333C35.0586 40.8559 33.5555 41.2317 32.0294 41.2267C30.4957 41.2251 28.9855 40.8498 27.6294 40.1333C27.1039 39.8383 26.6044 39.4994 26.1361 39.12C25.2141 38.3945 24.4515 37.4867 23.8961 36.4533C23.2738 35.3094 22.8993 34.0472 22.7968 32.749C22.6943 31.4508 22.8663 30.1455 23.3014 28.9181C23.7365 27.6907 24.4251 26.5686 25.3224 25.6248C26.2197 24.681 27.3056 23.9366 28.5094 23.44C30.49 22.6107 32.6998 22.5068 34.7494 23.1467C35.3254 23.3244 35.8765 23.5555 36.4028 23.84C37.7458 24.5655 38.8903 25.6093 39.7361 26.88C39.905 27.1147 40.0472 27.3635 40.1628 27.6267C41.0615 29.2319 41.4345 31.0784 41.2294 32.9067Z" fill="white"/>
</svg>
